<?xml version="1.0" encoding="UTF-8"?> <svg xmlns="http://www.w3.org/2000/svg" data-name="Layer 1" width="602.10668" height="696.91865" viewBox="-14.369 -14.369 499.126 543.645"><title>link</title><path d="M 343.048 147.565 L 343.048 78.101 C 343.048 55.899 326.402 37.897 305.868 37.897 L 169.772 37.897 C 149.238 37.897 132.592 55.899 132.592 78.101 L 132.592 459.185 C 132.592 481.388 149.238 499.388 169.772 499.388 L 305.868 499.388 C 326.402 499.388 343.048 481.389 343.048 459.185 L 343.048 197.01 C 344.342 197.01 345.393 195.875 345.393 194.475 L 345.393 150.1 C 345.393 148.7 344.342 147.565 343.048 147.565 Z" fill="#3f3d56" style=""></path><path d="M 335.136 78.377 L 335.136 458.911 C 335.136 475.361 322.89 488.746 307.678 488.916 C 307.577 488.928 307.476 488.932 307.374 488.93 L 170.614 488.93 C 155.283 488.93 142.853 475.489 142.852 458.911 L 142.852 78.377 C 142.853 61.797 155.283 48.359 170.614 48.357 L 187.21 48.357 C 183.678 57.74 190.056 68.006 199.427 68.014 L 277.396 68.014 C 286.754 67.986 293.119 57.733 289.6 48.357 L 307.374 48.357 C 322.706 48.359 335.135 61.797 335.136 78.377 Z" fill="#fff" style=""></path><path d="M 210.66 108.632 C 210.66 108.632 199.288 104.878 191.976 119.891 C 184.665 134.904 173.292 151.417 173.292 151.417 L 179.791 152.918 C 179.791 152.918 181.416 142.41 185.478 140.909 L 183.853 154.42 C 183.853 154.42 232.593 170.183 254.524 152.918 L 253.713 147.664 C 253.713 147.664 256.962 148.415 256.962 152.918 L 259.399 150.667 C 259.399 150.667 256.962 146.163 249.65 140.158 C 244.853 136.216 243.204 128.718 242.637 124.03 C 242.188 120.06 240.485 116.338 237.775 113.401 C 232.916 108.198 224.063 102.668 210.66 108.632 Z" fill="#2f2e41" style="transform-box: fill-box; transform-origin: 50% 50%;" transform="matrix(0.936573, -0.350472, 0.350472, 0.936573, 0.000002, 0.000007)"></path><path d="M 190.926 140.897 C 198.279 135.579 204.231 129.454 208.168 122.168 C 208.168 122.168 221.663 137.151 229.91 137.901 C 238.155 138.649 230.659 119.921 230.659 119.921 L 215.666 116.175 L 201.421 117.673 L 190.176 125.165 L 190.926 140.897 Z" fill="#2f2e41" style="transform-box: fill-box; transform-origin: 50% 50%;" transform="matrix(0.979732, -0.200311, 0.200311, 0.979732, 0.000002, -0.000002)"></path><path d="M 133.345 186.425 C 131.598 186.422 130.183 184.892 130.181 183.004 L 130.181 159.731 C 130.184 157.097 132.823 155.454 134.931 156.775 C 135.907 157.386 136.509 158.512 136.511 159.731 L 136.511 183.004 C 136.508 184.892 135.092 186.422 133.345 186.425 Z" fill="#3f3d56" style=""></path><path d="M 132.712 141.252 C 130.964 141.249 129.548 139.718 129.546 137.83 L 129.546 114.557 C 129.55 111.922 132.19 110.281 134.299 111.6 C 135.274 112.212 135.876 113.339 135.877 114.557 L 135.877 137.83 C 135.875 139.718 134.459 141.249 132.712 141.252 Z" fill="#3f3d56" style=""></path><path d="M 216.896 52.271 C 216.899 50.382 218.314 48.851 220.061 48.848 L 241.582 48.848 C 244.018 48.852 245.538 51.706 244.316 53.986 C 243.751 55.041 242.71 55.691 241.582 55.693 L 220.061 55.693 C 218.314 55.69 216.899 54.16 216.896 52.271 Z" fill="#fff" style=""></path><path d="M 133.345 226.124 C 131.598 226.121 130.183 224.591 130.181 222.701 L 130.181 199.43 C 130.184 196.796 132.823 195.153 134.931 196.474 C 135.907 197.086 136.509 198.211 136.511 199.43 L 136.511 222.701 C 136.508 224.591 135.092 226.121 133.345 226.124 Z" fill="#3f3d56" style=""></path><circle cx="273.389" cy="-20.155" r="3.666" fill="#fff" style="" transform="matrix(0.863139, 0, 0, 0.933356, 17.63682, 71.083054)"></circle><polygon points="224.135 474.174 232.653 474.172 236.703 438.645 224.134 438.645 224.135 474.174" fill="#9e616a" style=""></polygon><path d="M 221.962 471.166 L 224.36 471.165 L 233.72 467.048 L 238.737 471.165 C 244.642 471.165 249.428 476.34 249.428 482.723 L 249.428 483.099 L 221.962 483.1 L 221.962 471.166 Z" fill="#2f2e41" style=""></path><polygon points="263.707 474.174 272.224 474.172 276.277 438.645 263.706 438.645 263.707 474.174" fill="#9e616a" style=""></polygon><path d="M 261.536 471.166 L 263.933 471.165 L 273.294 467.048 L 278.309 471.165 L 278.31 471.165 C 284.214 471.165 289 476.34 289.001 482.723 L 289.001 483.099 L 261.536 483.1 L 261.536 471.166 Z" fill="#2f2e41" style=""></path><path d="M 270.516 279.748 L 203.592 281.635 L 204.755 316.876 C 204.755 316.876 203.592 326.316 205.919 328.833 C 208.247 331.351 209.411 331.351 208.247 335.754 C 207.083 340.16 213.232 347.355 212.487 348.162 C 211.739 348.97 209.994 353.376 209.994 353.376 L 215.814 389.245 C 215.814 389.245 219.887 451.544 221.051 452.803 C 222.214 454.062 223.379 452.803 222.214 455.949 C 221.051 459.095 219.887 457.839 221.051 459.095 C 222.083 460.298 223.053 461.559 223.96 462.872 L 238.03 462.872 C 238.03 462.872 239.09 456.58 239.09 455.949 C 239.09 455.32 240.255 451.544 240.255 450.916 C 240.255 450.285 239.227 449.173 239.227 449.173 C 238.871 447.895 238.631 446.581 238.509 445.253 C 238.509 443.994 235.017 395.537 235.017 395.537 L 242.001 332.608 L 258.878 394.28 C 258.878 394.28 258.878 448.399 260.041 449.657 C 261.206 450.916 261.206 450.285 260.622 452.803 C 260.041 455.32 257.714 454.691 259.458 456.58 C 261.206 458.466 261.787 455.32 261.206 458.466 L 260.622 461.612 L 278.082 461.884 C 278.082 461.884 280.41 456.58 279.246 454.691 C 278.082 452.803 278.152 453.318 279.572 450.229 C 280.991 447.14 281.574 446.512 280.991 445.881 C 280.41 445.253 280.41 441.904 280.41 441.904 L 277.5 381.693 C 277.5 381.693 276.917 318.135 276.917 316.247 C 276.875 315.276 277.038 314.308 277.401 313.417 L 277.401 310.853 L 275.172 301.774 L 270.516 279.748 Z" fill="#2f2e41" style=""></path><circle cx="222.921" cy="87.242" r="20.901" style="fill: rgb(238, 196, 196);" transform="matrix(0.863139, 0, 0, 0.933356, 25.745722, 52.42334)"></circle><path d="M 209.961 147.121 L 209.231 146.488 C 209.218 146.477 207.831 145.286 206.508 145.495 C 205.898 145.606 205.361 145.992 205.033 146.559 C 204.841 146.874 204.495 147.034 204.153 146.964 C 202.436 146.672 199.336 141.18 197.776 135.662 C 196.812 132.261 195.679 126.095 198.806 122.813 C 199.047 121.324 201.54 107.918 212.505 107.545 C 223.784 107.158 231.294 109.62 233.105 114.29 C 233.415 115.084 233.726 116.019 234.032 117.07 C 234.349 118.113 234.083 119.263 233.349 120.023 C 232.684 120.721 231.74 121.014 230.835 120.8 C 230.78 121.398 230.635 121.983 230.406 122.532 C 229.419 124.841 226.94 126.35 224.087 126.374 C 222.396 126.346 220.723 125.996 219.144 125.342 L 223.709 129.138 L 212.801 127.672 L 216.374 129.738 L 215.658 130.105 C 211.09 132.295 208.463 137.54 209.263 142.873 L 209.961 147.121 Z" fill="#2f2e41" style=""></path><path d="M 267.229 270.422 C 269.768 265.683 267.35 258.835 267.35 258.835 C 267.35 258.835 273.917 248.335 272.306 243.857 L 264.572 179.057 C 264.572 179.057 262.156 172.087 256.516 168.602 C 254.967 167.644 246.845 168.021 245.063 168.037 L 239.278 165.363 C 238.941 166.688 232.632 152.855 232.599 154.232 C 228.57 154.232 225.974 154.833 219.706 155.975 C 208.822 157.957 214.305 168.592 214.996 169.847 C 214.719 169.867 214.442 169.908 214.17 169.972 C 212.752 170.26 207.917 174.781 207.917 174.781 L 199.273 183.084 C 186.243 194.141 189.159 211.393 189.159 211.393 L 208.16 232.069 L 199.837 273.552 C 199.837 273.552 203.374 279.71 201.545 282.473 C 199.715 285.235 217.66 284.442 217.66 284.442 C 230.044 290.411 273.675 285.366 273.675 285.366 C 273.071 283.657 267.229 270.422 267.229 270.422 Z" fill="#e6e6e6" style=""></path><path d="M 305.026 479.641 C 305.026 483.584 304.911 487.494 304.682 491.37 C 304.581 491.383 304.48 491.388 304.379 491.385 L 167.625 491.385 C 154.893 491.385 143.793 482.025 140.691 468.673 C 140.427 467.54 140.227 466.391 140.094 465.231 C 139.938 463.95 139.861 462.659 139.863 461.365 L 139.863 291.781 C 150.385 292.344 160.839 293.941 171.094 296.552 C 172.099 296.803 173.096 297.069 174.087 297.342 C 174.149 297.357 174.214 297.38 174.276 297.395 C 175.28 297.669 176.278 297.958 177.269 298.254 C 198.41 304.533 218.255 315.099 235.749 329.391 C 236.753 330.202 237.751 331.039 238.741 331.881 L 238.931 332.042 C 240.589 333.454 242.22 334.903 243.827 336.386 C 244.186 336.711 244.544 337.048 244.895 337.389 C 245.76 338.194 246.623 339.015 247.466 339.843 C 266.12 358 280.929 380.299 290.878 405.214 C 291.208 406.027 291.525 406.848 291.84 407.668 C 291.967 408.002 292.093 408.336 292.22 408.672 C 292.34 408.975 292.451 409.279 292.565 409.582 C 300.822 431.859 305.052 455.641 305.026 479.641 Z" fill="#3f3d56" style=""></path><path d="M 241.923 462.778 C 241.919 432.894 264.323 408.668 291.96 408.672 L 292.22 408.672 C 292.093 408.336 291.967 408.002 291.84 407.668 C 291.525 406.848 291.208 406.027 290.878 405.214 L 241.923 405.214 L 241.923 337.389 L 244.895 337.389 C 244.544 337.048 244.186 336.711 243.827 336.386 C 242.218 334.906 240.586 333.457 238.931 332.042 L 238.741 331.881 L 238.741 333.933 L 177.269 333.933 L 177.269 298.254 C 176.278 297.958 175.28 297.669 174.276 297.395 C 174.214 297.38 174.149 297.357 174.087 297.342 L 174.087 333.933 L 142.855 333.933 L 142.855 337.389 L 174.087 337.389 L 174.087 405.214 L 142.855 405.214 L 142.855 408.672 L 174.087 408.672 L 174.087 462.778 L 143.086 462.778 C 143.22 463.938 143.42 465.087 143.683 466.219 L 174.087 466.219 L 174.087 488.931 L 177.269 488.931 L 177.269 466.219 L 238.741 466.219 L 238.741 488.931 L 241.923 488.931 L 241.923 466.219 L 295.557 466.219 L 295.557 462.778 L 241.923 462.778 Z M 238.741 462.778 L 177.269 462.778 L 177.269 408.672 L 238.741 408.672 L 238.741 462.778 Z M 238.741 405.214 L 177.269 405.214 L 177.269 403.863 C 177.269 367.15 204.791 337.389 238.741 337.389 L 238.741 405.214 Z" opacity="0.2" style=""></path><path d="M 204.977 316.584 C 202.286 313.315 202.981 308.214 206.428 305.923 L 198.232 271.08 L 209.438 275.724 L 215.665 308.626 C 218.009 313.438 214.657 319.189 209.632 318.977 C 207.843 318.904 206.159 318.037 204.977 316.584 Z" style="fill: rgb(238, 196, 196);"></path><path d="M 189.893 204.766 L 188.882 218.682 C 188.882 218.682 187.623 233.966 187.952 236.791 C 188.282 239.619 188.896 256.879 188.896 256.879 L 199.561 279.699 L 211.649 276.213 L 210.925 265.508 L 211.649 275.343 L 213.261 266.629 L 209.232 251.817 L 211.649 246.59 L 210.43 229.04 L 189.893 204.766 Z" fill="#e6e6e6" style=""></path><path d="M 467.822 298.645 C 466.4 296.82 464.38 295.66 462.185 295.4 C 461.873 295.363 461.559 295.345 461.245 295.344 L 299.253 295.182 C 296.883 295.172 294.614 296.224 292.987 298.088 C 291.436 299.911 290.589 302.306 290.618 304.784 L 290.594 333.239 C 290.581 338.395 291.613 343.49 293.622 348.167 C 292.501 352.756 290.63 357.092 288.097 360.969 C 284.871 365.992 287.885 372.907 293.521 373.416 C 293.883 373.448 294.248 373.451 294.612 373.425 C 296.321 373.311 298.021 373.103 299.708 372.799 C 304.619 371.967 309.306 369.993 313.444 367.014 C 316.626 368.096 319.944 368.649 323.281 368.651 L 437.189 368.766 C 445.867 368.8 454.195 365.07 460.307 358.411 C 466.473 351.603 469.9 342.435 469.838 332.908 L 469.862 304.976 C 469.898 302.671 469.175 300.428 467.822 298.645 Z" style="fill: rgb(112, 192, 240);"></path><path d="M 425.497 321.004 L 334.957 320.912 C 333.441 320.91 332.493 319.134 333.253 317.716 C 333.605 317.057 334.257 316.65 334.96 316.651 L 425.5 316.742 C 427.017 316.744 427.963 318.52 427.202 319.939 C 426.85 320.598 426.201 321.004 425.497 321.004 Z" fill="#fff" style=""></path><path d="M 425.485 334.079 L 334.945 333.988 C 333.428 333.986 332.482 332.21 333.242 330.79 C 333.595 330.132 334.244 329.726 334.95 329.727 L 425.488 329.818 C 427.005 329.82 427.952 331.596 427.193 333.015 C 426.84 333.673 426.189 334.08 425.485 334.079 Z" fill="#fff" style=""></path><path d="M 345.486 347.073 L 334.935 347.062 C 333.418 347.061 332.471 345.285 333.231 343.865 C 333.583 343.208 334.233 342.801 334.937 342.802 L 345.489 342.813 C 347.005 342.818 347.948 344.595 347.187 346.013 C 346.834 346.668 346.185 347.072 345.486 347.073 Z" fill="#fff" style=""></path><path d="M -7.506 188.502 C -6.082 186.677 -4.065 185.514 -1.87 185.256 C -1.557 185.219 -1.243 185.202 -0.93 185.201 L 161.064 185.037 C 163.433 185.028 165.702 186.081 167.329 187.944 C 168.88 189.768 169.727 192.163 169.697 194.64 L 169.722 223.095 C 169.734 228.251 168.701 233.346 166.696 238.025 C 167.814 242.613 169.685 246.948 172.22 250.825 C 175.444 255.848 172.431 262.763 166.795 263.272 C 166.432 263.305 166.066 263.309 165.702 263.283 C 163.995 263.168 162.295 262.959 160.607 262.656 C 155.695 261.824 151.008 259.85 146.872 256.87 C 143.689 257.953 140.372 258.505 137.034 258.507 L 23.127 258.623 C 14.448 258.657 6.121 254.926 0.008 248.266 C -6.159 241.459 -9.584 232.293 -9.523 222.763 L -9.547 194.833 C -9.583 192.527 -8.859 190.284 -7.506 188.502 Z" style="fill: rgb(112, 192, 240);"></path><path d="M 32.846 208.731 C 32.846 207.556 33.728 206.602 34.815 206.599 L 125.356 206.508 C 126.873 206.506 127.821 208.279 127.064 209.701 C 126.713 210.361 126.062 210.769 125.359 210.769 L 34.819 210.86 C 33.732 210.859 32.849 209.907 32.846 208.731 Z" fill="#fff" style=""></path><path d="M 32.859 221.806 C 32.859 220.631 33.739 219.678 34.826 219.675 L 125.366 219.584 C 126.882 219.582 127.833 221.355 127.076 222.777 C 126.723 223.437 126.075 223.844 125.371 223.845 L 34.831 223.935 C 33.743 223.935 32.861 222.982 32.859 221.806 Z" fill="#fff" style=""></path><path d="M 112.86 234.801 C 112.86 233.624 113.739 232.671 114.828 232.67 L 125.377 232.659 C 126.895 232.657 127.844 234.431 127.087 235.852 C 126.736 236.511 126.086 236.918 125.382 236.919 L 114.831 236.929 C 113.744 236.929 112.861 235.977 112.86 234.801 Z" fill="#fff" style=""></path><path d="M 318.768 122.638 C 314.924 124.721 313.756 130.053 316.326 133.78 L 302.552 155.743 L 315.304 155.921 L 326.428 135.038 C 330.491 131.284 329.272 124.181 324.234 122.253 C 322.44 121.565 320.464 121.706 318.768 122.638 Z" style="fill: rgb(238, 196, 196);"></path><path d="M 323.143 143.35 L 301.923 185.542 L 301.734 185.556 C 301.579 185.566 294.828 186.049 286.582 186.532 C 285.191 186.615 284.372 189.282 282.921 189.361 C 281.921 189.416 278.233 194.431 277.223 194.483 C 268.236 194.943 263.081 199.386 259.661 199.04 C 255.025 198.622 248.852 184.835 245.483 181.366 L 245.405 181.274 L 245.393 181.151 C 244.907 175.94 247.832 171.061 252.431 169.412 C 263.228 165.612 274.693 164.578 285.923 166.39 L 292.309 167.428 L 311.696 139.272 L 323.143 143.35 Z" fill="#e6e6e6" style=""></path><path d="M 437.616 61.648 C 436.193 59.823 434.174 58.66 431.978 58.4 C 431.667 58.365 431.353 58.347 431.039 58.346 L 269.047 58.182 C 266.675 58.172 264.408 59.225 262.782 61.089 C 261.23 62.912 260.383 65.307 260.413 67.786 L 260.388 96.24 C 260.375 101.396 261.409 106.492 263.415 111.17 C 262.295 115.758 260.424 120.093 257.891 123.971 C 254.665 128.993 257.679 135.908 263.314 136.417 C 263.677 136.449 264.042 136.452 264.406 136.428 C 266.114 136.313 267.815 136.104 269.503 135.8 C 274.413 134.968 279.1 132.994 283.237 130.015 C 286.42 131.099 289.738 131.651 293.075 131.651 L 406.984 131.767 C 415.661 131.801 423.988 128.071 430.102 121.412 C 436.267 114.604 439.694 105.437 439.631 95.909 L 439.657 67.978 C 439.692 65.672 438.969 63.43 437.616 61.648 Z" style="fill: rgb(112, 192, 240);"></path><path d="M 395.291 84.005 L 304.751 83.914 C 303.234 83.912 302.287 82.135 303.048 80.717 C 303.399 80.058 304.049 79.652 304.754 79.652 L 395.293 79.744 C 396.811 79.746 397.757 81.522 396.997 82.941 C 396.644 83.599 395.995 84.006 395.291 84.005 Z" fill="#fff" style=""></path><path d="M 395.28 97.08 L 304.739 96.989 C 303.223 96.988 302.277 95.212 303.036 93.791 C 303.389 93.134 304.039 92.727 304.743 92.728 L 395.283 92.82 C 396.799 92.822 397.746 94.598 396.986 96.016 C 396.634 96.675 395.983 97.081 395.28 97.08 Z" fill="#fff" style=""></path><path d="M 315.279 110.074 L 304.729 110.063 C 303.212 110.062 302.264 108.286 303.025 106.866 C 303.378 106.209 304.028 105.803 304.731 105.803 L 315.283 105.815 C 316.799 105.819 317.743 107.596 316.982 109.014 C 316.629 109.669 315.98 110.073 315.279 110.074 Z" fill="#fff" style=""></path></svg> 